# xmcd CD database file
#
# Track frame offsets:
#	150
#	13292
#	26464
#	48998
#	70138
#	92000
#	107932
#	124861
#	143558
#	156973
#	171725
#	188737
#	207139
#	226091
#	258345
#	284005
#	300359
#	319081
#
# Disc length: 4483 seconds
#
# Revision: 0
# Processed by: cddbd v1.5.1PL0 Copyright (c) Steve Scherf et al.
# Submitted via: CDex 1.51
#
DISCID=fc118112
DTITLE=Stevie Wonder - Ballad Collection
DYEAR=1999
DGENRE=R&B
TTITLE0=You Are the Sunshine of My Life
TTITLE1=My Cherie Amour
TTITLE2=Golden Lady
TTITLE3=You and I (We Can Conquer the World)
TTITLE4=If Ever
TTITLE5=Too Shy to Say
TTITLE6=All in Love Is Fair
TTITLE7=For You Love
TTITLE8=Never Dreamed You'd Leave in Summer
TTITLE9=If It's Magic
TTITLE10=Overjoyed
TTITLE11=Send One Your Love
TTITLE12=Kiss Lonely Good-Bye
TTITLE13=Love's in Need of Love Today
TTITLE14=Ribbon in the Sky
TTITLE15=Stay Gold
TTITLE16=Lately
TTITLE17=To Feel The Fire
EXTD=YEAR: 1999
EXTT0=
EXTT1=
EXTT2=
EXTT3=
EXTT4=
EXTT5=
EXTT6=
EXTT7=
EXTT8=
EXTT9=
EXTT10=
EXTT11=
EXTT12=
EXTT13=
EXTT14=
EXTT15=
EXTT16=
EXTT17=
PLAYORDER=
